<?xml version="1.0" encoding="UTF-8"?>
<svg id="Layer_1" data-name="Layer 1" xmlns="http://www.w3.org/2000/svg" viewBox="0 0 672.27 445.81">
  <defs>
    <style>
      .cls-1 {
        fill: #b4872d;
      }
    </style>
  </defs>
  <rect class="cls-1" x="490.39" y="360.12" width="61.11" height="5"/>
  <polygon class="cls-1" points="551.5 327.2 551.5 335.83 525.97 335.83 525.97 292.12 551.5 292.12 551.5 300.63 536.5 300.63 536.5 308.89 550.46 308.89 550.46 317.4 536.5 317.4 536.5 327.2 551.5 327.2"/>
  <path class="cls-1" d="M516.3,310.73v23.14c-2.24.77-4.71,1.4-7.41,1.87-2.69.46-5.63.7-8.81.7-4.24,0-7.92-.84-11.02-2.51s-5.49-4.18-7.16-7.53c-1.67-3.34-2.51-7.53-2.51-12.55,0-4.57.88-8.53,2.63-11.87,1.76-3.35,4.34-5.93,7.75-7.74,3.4-1.82,7.58-2.73,12.51-2.73,2.53,0,4.97.25,7.32.74s4.42,1.14,6.21,1.96l-3.36,8.32c-1.47-.74-3.06-1.31-4.78-1.71-1.71-.41-3.51-.62-5.39-.62-2.65,0-4.87.61-6.67,1.81-1.79,1.2-3.14,2.85-4.04,4.93-.89,2.08-1.34,4.46-1.34,7.16s.38,5.18,1.16,7.22c.77,2.04,1.95,3.61,3.52,4.71,1.57,1.11,3.56,1.66,5.97,1.66,1.02,0,2.01-.05,2.97-.16.95-.1,1.76-.23,2.41-.39v-7.96h-8.02v-8.45h18.06Z"/>
  <path d="M482.44,354.89l-1.08,2.53c-.73-.31-1.48-.57-2.23-.79s-1.52-.32-2.32-.32c-.97,0-1.7.15-2.21.46-.5.31-.75.73-.75,1.26,0,.39.12.73.35,1,.24.28.65.56,1.24.85.58.29,1.39.64,2.41,1.05,1.03.39,1.91.79,2.64,1.2s1.28.91,1.66,1.51c.38.59.57,1.35.57,2.28,0,1.08-.27,2-.8,2.75-.54.75-1.3,1.32-2.31,1.7s-2.23.57-3.67.57c-1.15,0-2.14-.09-2.98-.27-.84-.17-1.62-.42-2.31-.75v-2.93c.74.37,1.59.69,2.57.96.97.27,1.91.4,2.82.4,1.21,0,2.09-.19,2.63-.57s.82-.89.82-1.53c0-.37-.11-.7-.31-1-.21-.29-.59-.6-1.16-.9-.56-.31-1.39-.68-2.48-1.11-1.04-.43-1.94-.86-2.68-1.28-.73-.42-1.29-.93-1.67-1.51-.38-.59-.57-1.34-.57-2.26,0-1.46.58-2.57,1.74-3.33s2.69-1.14,4.6-1.14c1.03,0,1.99.1,2.88.29.89.2,1.76.49,2.6.88Z"/>
  <path class="cls-1" d="M462.32,291.94l14.93,43.89h-11.44l-2.64-9.31h-15.06l-2.69,9.31h-11.14l-.25-.37,14.76-43.52h13.53ZM460.85,317.77l-2.57-8.63c-.21-.73-.48-1.73-.83-3-.35-1.26-.69-2.56-1.04-3.89-.35-1.32-.62-2.43-.83-3.33-.16.9-.42,2.02-.76,3.36-.35,1.35-.69,2.65-1.01,3.89-.33,1.25-.59,2.24-.8,2.97l-2.51,8.63h10.35Z"/>
  <path d="M466.67,359.82v10.81h-3.32v-10.32c0-1.29-.27-2.26-.8-2.89-.54-.64-1.39-.96-2.56-.96-1.68,0-2.84.5-3.48,1.49-.63,1-.95,2.44-.95,4.33v8.35h-3.33v-16.6h2.62l.46,2.22h.19c.37-.58.82-1.06,1.37-1.44.54-.38,1.14-.65,1.8-.83.65-.17,1.33-.26,2.03-.26,1.91,0,3.38.48,4.42,1.43,1.04.96,1.55,2.51,1.55,4.67Z"/>
  <path d="M448.1,362.28c0,1.85-.32,3.42-.97,4.71-.64,1.3-1.55,2.28-2.72,2.94-1.17.67-2.57,1.01-4.19,1.01-1.48,0-2.8-.34-3.97-1.01-1.17-.66-2.09-1.64-2.76-2.94-.67-1.29-1-2.86-1-4.71,0-2.75.7-4.86,2.09-6.34,1.4-1.48,3.31-2.22,5.73-2.22,1.54,0,2.89.33,4.05,1s2.08,1.64,2.74,2.91c.67,1.27,1,2.82,1,4.65ZM444.21,365.47c.3-.89.45-1.96.45-3.19s-.16-2.28-.47-3.14-.78-1.52-1.43-1.99c-.65-.46-1.48-.69-2.51-.69-1.52,0-2.62.51-3.31,1.53-.69,1.01-1.03,2.44-1.03,4.29,0,1.23.15,2.3.46,3.19s.79,1.57,1.43,2.03c.65.46,1.48.7,2.48.7s1.87-.24,2.51-.7c.65-.46,1.12-1.14,1.42-2.03Z"/>
  <polygon class="cls-1" points="437.56 43.8 434.08 56.08 385.77 56.41 384.39 56.41 383.69 57.61 375.32 71.87 375.2 72.07 357.76 101.77 357.51 102.22 343.03 126.88 328.84 126.88 346.46 96.33 346.59 96.11 363.24 67.26 363.96 66.02 376.78 43.8 437.56 43.8"/>
  <polygon points="434.03 335.46 434.28 335.83 433.91 335.83 434.03 335.46"/>
  <path class="cls-1" d="M434.03,335.46l-.12.37h-11.5l-9.8-16.35h-3.97v16.35h-10.53v-43.71h13.52c3.96,0,7.24.48,9.83,1.44s4.54,2.4,5.84,4.32c1.31,1.92,1.96,4.32,1.96,7.22,0,1.88-.33,3.56-1.01,5.05-.67,1.49-1.6,2.77-2.78,3.86-1.19,1.08-2.51,2.01-3.98,2.78l12.54,18.67ZM418.61,305.53c0-1.18-.26-2.15-.79-2.91-.53-.75-1.34-1.32-2.42-1.68-1.08-.37-2.48-.55-4.19-.55h-2.57v10.89h2.57c2.44,0,4.29-.46,5.54-1.37,1.24-.92,1.86-2.38,1.86-4.38Z"/>
  <rect x="425.01" y="354.03" width="3.32" height="16.6"/>
  <path d="M428.01,348.13c.38.3.57.79.57,1.46s-.19,1.14-.57,1.45-.82.46-1.31.46c-.53,0-.99-.15-1.36-.46-.36-.31-.55-.79-.55-1.45s.19-1.16.55-1.46c.37-.3.83-.45,1.36-.45.49,0,.93.15,1.31.45Z"/>
  <path d="M421.68,367.82v2.53c-.35.17-.83.3-1.43.42-.61.11-1.22.17-1.83.17-.91,0-1.73-.16-2.48-.47-.75-.3-1.35-.84-1.81-1.6-.45-.76-.67-1.83-.67-3.2v-9.12h-2.31v-1.51l2.43-1.23,1.17-3.51h2.03v3.73h4.75v2.52h-4.75v9.09c0,.88.22,1.53.67,1.95.44.43,1.02.64,1.74.64.43,0,.87-.05,1.32-.13s.84-.17,1.17-.28Z"/>
  <path d="M408.04,354.03v16.6h-2.65l-.46-2.19h-.16c-.35.58-.8,1.05-1.35,1.42-.56.37-1.16.64-1.82.81-.66.18-1.34.27-2.06.27-1.28,0-2.36-.21-3.25-.64-.9-.42-1.57-1.07-2.03-1.97-.47-.89-.7-2.05-.7-3.46v-10.84h3.36v10.35c0,1.27.27,2.23.8,2.88.53.64,1.38.97,2.53.97,1.68,0,2.84-.51,3.49-1.51.65-1.01.97-2.46.97-4.35v-8.34h3.33Z"/>
  <path d="M275.02,146.92h128.99c-.41,3.9-1.15,7.63-1.85,10.85-.88,4.04-1.89,8.35-3.08,13.2l-.11.42c-.05.21-.1.42-.16.62v.04s-.03.04-.03.04c-3.55,14.19-7.96,29.52-11.8,42.63-2.02,6.87-3.79,12.58-6.6,18.16-1.24,2.49-2.62,4.81-4.19,7.08-10.24,14.79-27.52,23.62-46.22,23.62h-73.69v-119.21c-.1-1.49-.15-2.99-.15-4.57.07-28.91,16.9-55.35,42.85-67.35,1.34-.59,2.6-1.13,3.74-1.58l.09-.04h.05s.06-.03.06-.03l.28-.13c.11-.03.22-.08.34-.13.16-.05.33-.11.49-.17.13-.05.27-.11.38-.15l.18-.06.03-.02s.07-.01.1-.03l.05-.02.11-.03.21-.08.1-.04c.06-.02.13-.05.2-.06h.03s.22-.07.22-.07l.14-.07c.08-.03.14-.05.21-.08l.1-.02.07-.03.12-.05c.42-.14.84-.28,1.27-.41h.04s.03-.02.03-.02l.1-.03c.26-.08.51-.16.76-.23l.13-.04.15-.03.08-.04h.06c.38-.13.76-.24,1.14-.34l.07-.03.07-.02.11-.04c.39-.09.8-.2,1.2-.3l.15-.04.11-.02c.07-.03.15-.04.23-.06l.09-.03.1-.02h.05s.06-.03.06-.03c.04,0,.08-.02.12-.02h.05s.12-.05.12-.05h.08s.11-.04.11-.04h.03s.03-.01.03-.01c.23-.06.46-.12.71-.17h.17l.24-.09c5.27-1.14,10.77-1.71,16.35-1.71,2.69,0,5.53.12,8.41.4h.04c.28.03.55.06.82.1.26.03.52.07.78.11.01-.01.02,0,.03,0,.24.03.48.07.72.1.59.09,1.17.18,1.74.28.49.09.97.18,1.45.27.27.06.53.11.79.16.55.12,1.1.23,1.64.36,1.91.44,3.8.95,5.65,1.54l-9.92,17.19c-1.93-.45-3.91-.79-5.92-1.02-2.14-.26-4.32-.39-6.53-.39-30.48,0-55.2,24.71-55.2,55.2,0,1.8.09,3.58.26,5.33v.02l-.03,1.53ZM378.42,169.86l1-3.17h-103.22v76.55h50.12c1.48.18,2.97.28,4.41.28,1.66,0,3.31-.12,4.89-.36,11.73-1.68,21.8-9.52,27.64-21.51,1.04-2.14,1.93-4.34,2.62-6.53,1.31-4.03,2.45-8.15,3.51-12.26.7-2.68,1.36-5.35,2.02-7.99l.08-.32c1.44-5.85,3.09-12.5,4.99-18.57l1.94-6.12Z"/>
  <path d="M403.08,126.7h-19.52c-.38-1.54-.82-3.05-1.33-4.53-2.13-6.23-5.34-11.95-9.41-16.95-1.29-1.58-2.66-3.09-4.11-4.51l9.94-16.92c1.5,1.3,2.96,2.67,4.34,4.09,9.2,9.36,15.92,21.14,19.13,34.29.37,1.49.69,3,.96,4.53Z"/>
  <polygon class="cls-1" points="389.66 327.2 389.66 335.83 364.14 335.83 364.14 292.12 389.66 292.12 389.66 300.63 374.66 300.63 374.66 308.89 388.62 308.89 388.62 317.4 374.66 317.4 374.66 327.2 389.66 327.2"/>
  <rect x="385.28" y="347.22" width="3.32" height="23.41"/>
  <path d="M381.15,362.28c0,1.85-.32,3.42-.97,4.71-.65,1.3-1.55,2.28-2.72,2.94-1.17.67-2.57,1.01-4.19,1.01-1.48,0-2.81-.34-3.97-1.01-1.18-.66-2.09-1.64-2.76-2.94-.67-1.29-1-2.86-1-4.71,0-2.75.7-4.86,2.09-6.34,1.4-1.48,3.31-2.22,5.73-2.22,1.54,0,2.89.33,4.05,1s2.07,1.64,2.74,2.91,1,2.82,1,4.65ZM377.26,365.47c.29-.89.44-1.96.44-3.19s-.15-2.28-.46-3.14-.78-1.52-1.43-1.99c-.65-.46-1.49-.69-2.51-.69-1.52,0-2.63.51-3.31,1.53-.69,1.01-1.03,2.44-1.03,4.29,0,1.23.15,2.3.46,3.19s.78,1.57,1.43,2.03,1.47.7,2.48.7,1.86-.24,2.51-.7,1.12-1.14,1.42-2.03Z"/>
  <path d="M362.18,349.65l-1.08,2.81c-.84-.35-1.69-.64-2.55-.86-.87-.23-1.76-.34-2.68-.34-.82,0-1.51.11-2.05.35-.55.24-.96.57-1.23,1-.28.43-.42.94-.42,1.51,0,.66.16,1.21.46,1.66.31.46.8.87,1.47,1.24.66.36,1.55.78,2.66,1.23,1.23.49,2.28,1.01,3.14,1.57.86.55,1.52,1.21,1.97,1.98s.68,1.73.68,2.88c0,1.3-.32,2.41-.96,3.35-.63.93-1.54,1.65-2.74,2.15-1.19.5-2.6.76-4.25.76-.8,0-1.57-.05-2.31-.14-.73-.1-1.42-.22-2.06-.39-.64-.16-1.21-.37-1.72-.61v-3.21c.84.37,1.81.71,2.92,1,1.11.3,2.24.45,3.39.45.99,0,1.8-.13,2.45-.38.65-.26,1.13-.63,1.45-1.1.31-.47.47-1.02.47-1.66s-.17-1.22-.51-1.68c-.33-.46-.86-.89-1.57-1.28-.7-.39-1.64-.81-2.81-1.26-.8-.31-1.54-.65-2.21-1.03-.66-.38-1.24-.83-1.74-1.34-.49-.51-.87-1.11-1.15-1.79-.28-.67-.42-1.47-.42-2.37,0-1.21.3-2.25.9-3.12.59-.88,1.43-1.54,2.51-2.01,1.07-.46,2.33-.69,3.77-.69,1.19,0,2.29.12,3.31.35,1.02.24,1.99.56,2.91.97Z"/>
  <path class="cls-1" d="M358.99,292.12l-14.56,43.71h-12l-14.57-43.71h11.32l7.1,24.06c.17.65.4,1.6.71,2.85.3,1.24.6,2.53.89,3.85.28,1.33.47,2.42.55,3.28.12-.86.31-1.94.58-3.25.26-1.3.54-2.58.82-3.82.29-1.25.53-2.2.74-2.85l7.16-24.12h11.26Z"/>
  <path d="M346.73,67.48l-.02.04c-.54-.13-1.09-.24-1.64-.36-.26-.05-.52-.1-.79-.16-.48-.09-.96-.18-1.45-.27,1.31.22,2.61.46,3.9.75Z"/>
  <path d="M339.82,66.27c-.09-.01-.17-.02-.26-.03-.27-.04-.54-.07-.82-.1.18.01.35.03.53.05.19.02.37.05.55.08Z"/>
  <path d="M333.97,354.03v16.78c0,1.58-.28,2.91-.85,3.97-.56,1.07-1.41,1.88-2.55,2.42-1.14.55-2.59.82-4.33.82-1.19,0-2.28-.08-3.28-.25-1-.16-1.91-.42-2.76-.77v-2.89c.87.41,1.83.73,2.88.95,1.06.23,2.18.34,3.38.34,1.33,0,2.37-.38,3.11-1.15.73-.77,1.1-1.85,1.1-3.22v-.56c0-.26.01-.61.04-1.04.02-.43.04-.76.06-.99h-.13c-.57.86-1.27,1.49-2.11,1.89-.83.41-1.79.61-2.88.61-2.09,0-3.72-.76-4.89-2.27s-1.76-3.62-1.76-6.33.59-4.77,1.77-6.31,2.81-2.31,4.88-2.31c1.07,0,2.04.21,2.9.62s1.59,1.02,2.19,1.84h.15l.37-2.15h2.71ZM330.8,362.99v-.62c0-1.41-.16-2.55-.46-3.41-.31-.87-.79-1.5-1.45-1.9s-1.49-.6-2.5-.6c-1.27,0-2.25.51-2.94,1.53-.69,1.01-1.03,2.49-1.03,4.41s.34,3.37,1.02,4.36c.68,1,1.68,1.5,3.02,1.5.75,0,1.41-.1,1.95-.3.55-.19.99-.5,1.34-.94.35-.43.61-.98.79-1.64.17-.67.26-1.47.26-2.39Z"/>
  <path d="M314.97,359.82v10.81h-3.33v-10.32c0-1.29-.26-2.26-.8-2.89-.53-.64-1.38-.96-2.55-.96-1.69,0-2.85.5-3.48,1.49-.64,1-.96,2.44-.96,4.33v8.35h-3.33v-16.6h2.62l.46,2.22h.19c.37-.58.83-1.06,1.37-1.44s1.14-.65,1.8-.83c.66-.17,1.34-.26,2.03-.26,1.91,0,3.39.48,4.42,1.43,1.04.96,1.56,2.51,1.56,4.67Z"/>
  <polygon class="cls-1" points="314.56 327.2 314.56 335.83 289.03 335.83 289.03 292.12 314.56 292.12 314.56 300.63 299.56 300.63 299.56 308.89 313.51 308.89 313.51 317.4 299.56 317.4 299.56 327.2 314.56 327.2"/>
  <rect x="292.09" y="354.03" width="3.32" height="16.6"/>
  <path d="M295.09,348.13c.38.3.57.79.57,1.46s-.19,1.14-.57,1.45-.82.46-1.31.46c-.53,0-.99-.15-1.36-.46-.36-.31-.55-.79-.55-1.45s.19-1.16.55-1.46c.37-.3.83-.45,1.36-.45.49,0,.93.15,1.31.45Z"/>
  <path d="M289.01,353.87l-.34,3.11c-.23-.06-.5-.11-.8-.15-.31-.04-.6-.06-.87-.06-.82,0-1.59.2-2.32.6s-1.31.98-1.76,1.74c-.44.76-.66,1.69-.66,2.8v8.72h-3.32v-16.6h2.61l.43,2.95h.16c.53-.9,1.22-1.67,2.06-2.31.84-.63,1.84-.95,2.99-.95.29,0,.6.01.94.03s.63.06.88.12Z"/>
  <path class="cls-1" d="M279.73,317.56c.73,1.36,1.1,3.21,1.1,5.54,0,2.65-.65,4.92-1.96,6.82s-3.18,3.36-5.63,4.38-5.37,1.53-8.75,1.53h-16.65v-43.71h14.38c6.08,0,10.54.88,13.38,2.64,2.83,1.75,4.25,4.53,4.25,8.32,0,1.8-.31,3.36-.92,4.68-.61,1.33-1.43,2.4-2.45,3.22-1.02.81-2.16,1.36-3.42,1.65v.3c1.34.29,2.61.79,3.79,1.5,1.18.72,2.14,1.76,2.88,3.13ZM269.93,322.12c0-.94-.2-1.79-.61-2.54-.41-.76-1.1-1.35-2.08-1.78s-2.33-.64-4.04-.64h-4.84v10.28h5.09c2.4,0,4.09-.49,5.05-1.47.95-.98,1.43-2.26,1.43-3.85ZM267.7,307.88c.92-.83,1.38-1.94,1.38-3.33s-.53-2.48-1.59-3.15c-1.07-.68-2.74-1.01-5.02-1.01h-4.11v8.75h4.47c2.33,0,3.95-.42,4.87-1.26Z"/>
  <path d="M274.9,361.23v1.82h-11.15c.04,1.69.49,2.97,1.34,3.87.85.89,2.04,1.34,3.56,1.34,1.07,0,2.02-.11,2.85-.31.83-.21,1.69-.5,2.57-.89v2.77c-.82.37-1.66.64-2.51.83-.85.18-1.87.28-3.06.28-1.61,0-3.02-.32-4.25-.96-1.24-.64-2.2-1.58-2.88-2.85-.69-1.26-1.04-2.83-1.04-4.69s.32-3.43.94-4.73c.63-1.31,1.51-2.3,2.64-2.97,1.13-.68,2.44-1.02,3.94-1.02s2.71.3,3.76.91c1.04.6,1.85,1.47,2.43,2.59.57,1.11.86,2.45.86,4.01ZM263.81,360.59h7.77c-.03-1.27-.33-2.31-.93-3.11-.59-.8-1.54-1.2-2.83-1.2-1.15,0-2.08.37-2.77,1.12-.7.75-1.11,1.81-1.24,3.19Z"/>
  <path d="M257.96,367.82v2.53c-.35.17-.82.3-1.43.42-.61.11-1.22.17-1.83.17-.9,0-1.73-.16-2.48-.47-.75-.3-1.35-.84-1.8-1.6s-.68-1.83-.68-3.2v-9.12h-2.31v-1.51l2.43-1.23,1.17-3.51h2.04v3.73h4.74v2.52h-4.74v9.09c0,.88.22,1.53.66,1.95.44.43,1.02.64,1.74.64.43,0,.87-.05,1.32-.13s.84-.17,1.17-.28Z"/>
  <path d="M244.44,359.39v11.24h-2.37l-.65-2.31h-.12c-.47.59-.96,1.09-1.46,1.48s-1.08.67-1.73.86c-.64.18-1.43.28-2.35.28-1.5,0-2.74-.41-3.73-1.24-.98-.82-1.48-2.09-1.48-3.82s.64-2.96,1.91-3.85c1.28-.88,3.23-1.36,5.85-1.44l2.87-.09v-.9c0-1.21-.28-2.06-.83-2.55-.56-.5-1.34-.74-2.34-.74-.85,0-1.66.12-2.44.37-.78.24-1.53.54-2.24.89l-1.05-2.4c.78-.41,1.68-.76,2.71-1.03,1.02-.28,2.09-.42,3.2-.42,2.1,0,3.66.46,4.7,1.37,1.03.91,1.55,2.35,1.55,4.3ZM241.15,364.1v-1.45l-2.22.09c-1.87.07-3.16.37-3.88.91-.72.55-1.08,1.3-1.08,2.27,0,.86.26,1.48.77,1.86.52.38,1.18.57,2,.57,1.26,0,2.3-.36,3.14-1.06.85-.71,1.27-1.77,1.27-3.19Z"/>
  <rect class="cls-1" x="224.7" y="315.2" width="16.46" height="8.38"/>
  <path d="M228.15,349.72l-1.23,2.8c-.72-.33-1.49-.62-2.33-.88-.83-.26-1.71-.38-2.63-.38-1.44,0-2.67.33-3.71,1-1.04.66-1.83,1.63-2.39,2.89-.55,1.26-.83,2.77-.83,4.51s.25,3.22.76,4.47c.5,1.25,1.26,2.21,2.29,2.88s2.31,1,3.85,1c.94,0,1.85-.09,2.73-.26.87-.18,1.76-.41,2.66-.69v2.89c-.88.35-1.77.6-2.66.75-.9.16-1.94.24-3.13.24-2.26,0-4.13-.47-5.62-1.39s-2.6-2.24-3.33-3.94c-.73-1.71-1.09-3.7-1.09-5.98s.41-4.18,1.22-5.88,1.99-3.03,3.55-3.99c1.56-.95,3.46-1.43,5.7-1.43,1.13,0,2.22.12,3.28.37s2.03.58,2.91,1.02Z"/>
  <path class="cls-1" d="M210.68,316.79l12.79,19.04h-11.87l-9.79-16.35h-3.98v16.35h-10.53v-43.71h13.53c3.96,0,7.23.48,9.82,1.44s4.54,2.4,5.85,4.32c1.3,1.92,1.96,4.32,1.96,7.22,0,1.88-.34,3.56-1.01,5.05-.68,1.49-1.61,2.77-2.79,3.86-1.18,1.08-2.51,2.01-3.98,2.78ZM207.81,305.53c0-1.18-.27-2.15-.8-2.91-.53-.75-1.34-1.32-2.42-1.68-1.08-.37-2.48-.55-4.19-.55h-2.57v10.89h2.57c2.45,0,4.29-.46,5.54-1.37,1.24-.92,1.87-2.38,1.87-4.38Z"/>
  <rect class="cls-1" x="142.19" y="360.12" width="61.11" height="5"/>
  <path class="cls-1" d="M176.16,301.67c1.8,3.14,2.69,7.02,2.69,11.63,0,4.98-.95,9.14-2.84,12.49-1.9,3.34-4.59,5.85-8.08,7.53-3.49,1.67-7.66,2.51-12.52,2.51h-13.22v-43.71h14.38c4.65,0,8.63.81,11.94,2.42,3.3,1.61,5.85,3.99,7.65,7.13ZM167.9,313.61c0-4.41-.93-7.66-2.79-9.77-1.86-2.1-4.6-3.15-8.23-3.15h-4.16v26.45h3.3c4.04,0,7.03-1.13,8.97-3.37s2.91-5.63,2.91-10.16Z"/>
</svg>