<?xml version="1.0" encoding="UTF-8"?>
<svg id="Layer_1" data-name="Layer 1" xmlns="http://www.w3.org/2000/svg" viewBox="0 0 728.09 441.71">
  <rect x="540" y="397.77" width="71.2" height="5.83"/>
  <polygon points="611.2 359.41 611.2 369.46 581.46 369.46 581.46 318.53 611.2 318.53 611.2 328.45 593.73 328.45 593.73 338.07 609.99 338.07 609.99 347.99 593.73 347.99 593.73 359.41 611.2 359.41"/>
  <path d="M570.19,340.22v26.96c-2.61.9-5.49,1.63-8.63,2.18-3.13.54-6.56.82-10.27.82-4.94,0-9.23-.98-12.84-2.92s-6.4-4.87-8.34-8.77c-1.95-3.89-2.92-8.77-2.92-14.62,0-5.32,1.03-9.94,3.06-13.83,2.05-3.9,5.06-6.91,9.03-9.02,3.96-2.12,8.83-3.18,14.58-3.18,2.95,0,5.79.29,8.53.86s5.15,1.33,7.24,2.28l-3.91,9.69c-1.71-.86-3.57-1.53-5.57-1.99-1.99-.48-4.09-.72-6.28-.72-3.09,0-5.67.71-7.77,2.11-2.09,1.4-3.66,3.32-4.71,5.74-1.04,2.42-1.56,5.2-1.56,8.34s.44,6.04,1.35,8.41c.9,2.38,2.27,4.21,4.1,5.49,1.83,1.29,4.15,1.93,6.96,1.93,1.19,0,2.34-.06,3.46-.19,1.11-.12,2.05-.27,2.81-.45v-9.27h-9.34v-9.85h21.04Z"/>
  <path d="M530.74,391.67l-1.26,2.95c-.85-.36-1.72-.66-2.6-.92s-1.77-.37-2.7-.37c-1.13,0-1.98.17-2.58.54-.58.36-.87.85-.87,1.47,0,.45.14.85.41,1.17.28.33.76.65,1.44.99.68.34,1.62.75,2.81,1.22,1.2.45,2.23.92,3.08,1.4s1.49,1.06,1.93,1.76c.44.69.66,1.57.66,2.66,0,1.26-.31,2.33-.93,3.2-.63.87-1.51,1.54-2.69,1.98s-2.6.66-4.28.66c-1.34,0-2.49-.1-3.47-.31-.98-.2-1.89-.49-2.69-.87v-3.41c.86.43,1.85.8,2.99,1.12,1.13.31,2.23.47,3.29.47,1.41,0,2.44-.22,3.06-.66s.96-1.04.96-1.78c0-.43-.13-.82-.36-1.17-.24-.34-.69-.7-1.35-1.05-.65-.36-1.62-.79-2.89-1.29-1.21-.5-2.26-1-3.12-1.49-.85-.49-1.5-1.08-1.95-1.76-.44-.69-.66-1.56-.66-2.63,0-1.7.68-2.99,2.03-3.88s3.13-1.33,5.36-1.33c1.2,0,2.32.12,3.36.34,1.04.23,2.05.57,3.03,1.03Z"/>
  <path d="M507.3,318.32l17.4,51.14h-13.33l-3.08-10.85h-17.55l-3.13,10.85h-12.98l-.29-.43,17.2-50.71h15.76ZM505.58,348.42l-2.99-10.06c-.24-.85-.56-2.02-.97-3.5-.41-1.47-.8-2.98-1.21-4.53-.41-1.54-.72-2.83-.97-3.88-.19,1.05-.49,2.35-.89,3.91-.41,1.57-.8,3.09-1.18,4.53-.38,1.46-.69,2.61-.93,3.46l-2.92,10.06h12.06Z"/>
  <path d="M512.36,397.42v12.6h-3.87v-12.02c0-1.5-.31-2.63-.93-3.37-.63-.75-1.62-1.12-2.98-1.12-1.96,0-3.31.58-4.05,1.74-.73,1.17-1.11,2.84-1.11,5.05v9.73h-3.88v-19.34h3.05l.54,2.59h.22c.43-.68.96-1.24,1.6-1.68.63-.44,1.33-.76,2.1-.97.76-.2,1.55-.3,2.37-.3,2.23,0,3.94.56,5.15,1.67,1.21,1.12,1.81,2.92,1.81,5.44Z"/>
  <path d="M490.73,400.28c0,2.16-.37,3.98-1.13,5.49-.75,1.51-1.81,2.66-3.17,3.43-1.36.78-2.99,1.18-4.88,1.18-1.72,0-3.26-.4-4.63-1.18-1.36-.77-2.44-1.91-3.22-3.43-.78-1.5-1.17-3.33-1.17-5.49,0-3.2.82-5.66,2.44-7.39,1.63-1.72,3.86-2.59,6.68-2.59,1.79,0,3.37.38,4.72,1.17s2.42,1.91,3.19,3.39c.78,1.48,1.17,3.29,1.17,5.42ZM486.19,404c.35-1.04.52-2.28.52-3.72s-.19-2.66-.55-3.66-.91-1.77-1.67-2.32c-.76-.54-1.72-.8-2.92-.8-1.77,0-3.05.59-3.86,1.78-.8,1.18-1.2,2.84-1.2,5,0,1.43.17,2.68.54,3.72s.92,1.83,1.67,2.37c.76.54,1.72.82,2.89.82s2.18-.28,2.92-.82c.76-.54,1.3-1.33,1.65-2.37Z"/>
  <polygon points="478.45 29.2 474.39 43.51 418.1 43.89 416.49 43.89 415.68 45.29 405.93 61.91 405.79 62.14 385.47 96.75 385.17 97.27 368.3 126 351.77 126 372.3 90.41 372.45 90.15 391.85 56.54 392.69 55.09 407.63 29.2 478.45 29.2"/>
  <polygon points="474.33 369.03 474.62 369.46 474.19 369.46 474.33 369.03"/>
  <path d="M474.33,369.03l-.14.43h-13.4l-11.42-19.05h-4.63v19.05h-12.27v-50.93h15.75c4.61,0,8.44.56,11.45,1.68s5.29,2.8,6.8,5.03c1.53,2.24,2.28,5.03,2.28,8.41,0,2.19-.38,4.15-1.18,5.88-.78,1.74-1.86,3.23-3.24,4.5-1.39,1.26-2.92,2.34-4.64,3.24l14.61,21.75ZM456.37,334.16c0-1.37-.3-2.51-.92-3.39-.62-.87-1.56-1.54-2.82-1.96-1.26-.43-2.89-.64-4.88-.64h-2.99v12.69h2.99c2.84,0,5-.54,6.45-1.6,1.44-1.07,2.17-2.77,2.17-5.1Z"/>
  <rect x="463.82" y="390.67" width="3.87" height="19.34"/>
  <path d="M467.32,383.8c.44.35.66.92.66,1.7s-.22,1.33-.66,1.69-.96.54-1.53.54c-.62,0-1.15-.17-1.58-.54-.42-.36-.64-.92-.64-1.69s.22-1.35.64-1.7c.43-.35.97-.52,1.58-.52.57,0,1.08.17,1.53.52Z"/>
  <path d="M459.94,406.74v2.95c-.41.2-.97.35-1.67.49-.71.13-1.42.2-2.13.2-1.06,0-2.02-.19-2.89-.55-.87-.35-1.57-.98-2.11-1.86-.52-.89-.78-2.13-.78-3.73v-10.63h-2.69v-1.76l2.83-1.43,1.36-4.09h2.37v4.35h5.53v2.94h-5.53v10.59c0,1.03.26,1.78.78,2.27.51.5,1.19.75,2.03.75.5,0,1.01-.06,1.54-.15s.98-.2,1.36-.33Z"/>
  <path d="M444.05,390.67v19.34h-3.09l-.54-2.55h-.19c-.41.68-.93,1.22-1.57,1.65-.65.43-1.35.75-2.12.94-.77.21-1.56.31-2.4.31-1.49,0-2.75-.24-3.79-.75-1.05-.49-1.83-1.25-2.37-2.3-.55-1.04-.82-2.39-.82-4.03v-12.63h3.91v12.06c0,1.48.31,2.6.93,3.36.62.75,1.61,1.13,2.95,1.13,1.96,0,3.31-.59,4.07-1.76.76-1.18,1.13-2.87,1.13-5.07v-9.72h3.88Z"/>
  <path d="M289.06,149.35h150.29c-.48,4.54-1.34,8.89-2.16,12.64-1.03,4.71-2.2,9.73-3.59,15.38l-.13.49c-.06.24-.12.49-.19.72v.05s-.03.05-.03.05c-4.14,16.53-9.27,34.4-13.75,49.67-2.35,8-4.42,14.66-7.69,21.16-1.44,2.9-3.05,5.6-4.88,8.25-11.93,17.23-32.07,27.52-53.85,27.52h-85.86v-138.9c-.12-1.74-.17-3.48-.17-5.32.08-33.68,19.69-64.49,49.93-78.47,1.56-.69,3.03-1.32,4.36-1.84l.1-.05h.06s.07-.03.07-.03l.33-.15c.13-.03.26-.09.4-.15.19-.06.38-.13.57-.2.15-.06.31-.13.44-.17l.21-.07.03-.02s.08-.01.12-.03l.06-.02.13-.03.24-.09.12-.05c.07-.02.15-.06.23-.07h.03s.26-.08.26-.08l.16-.08c.09-.03.16-.06.24-.09l.12-.02.08-.03.14-.06c.49-.16.98-.33,1.48-.48h.05s.03-.02.03-.02l.12-.03c.3-.09.59-.19.89-.27l.15-.05.17-.03.09-.05h.07c.44-.15.89-.28,1.33-.4l.08-.03.08-.02.13-.05c.45-.1.93-.23,1.4-.35l.17-.05.13-.02c.08-.03.17-.05.27-.07l.1-.03.12-.02h.06s.07-.03.07-.03c.05-.01.09-.02.14-.02h.06s.14-.06.14-.06h.09s.13-.05.13-.05h.03s.03-.01.03-.01c.27-.07.54-.14.83-.2h.2l.28-.1c6.14-1.33,12.55-1.99,19.05-1.99,3.13,0,6.44.14,9.8.47h.05c.33.03.64.07.96.12.3.03.61.08.91.13.01-.01.02,0,.03,0,.28.03.56.08.84.12.69.1,1.36.21,2.03.33.57.1,1.13.21,1.69.31.31.07.62.13.92.19.64.14,1.28.27,1.91.42,2.23.51,4.43,1.11,6.58,1.79l-11.56,20.03c-2.25-.52-4.56-.92-6.9-1.19-2.49-.3-5.03-.45-7.61-.45-35.51,0-64.32,28.79-64.32,64.32,0,2.1.1,4.17.3,6.21v.02l-.03,1.78ZM409.54,176.08l1.17-3.69h-120.27v89.19h58.4c1.72.21,3.46.33,5.14.33,1.93,0,3.86-.14,5.7-.42,13.67-1.96,25.4-11.09,32.21-25.06,1.21-2.49,2.25-5.06,3.05-7.61,1.53-4.7,2.85-9.5,4.09-14.28.82-3.12,1.58-6.23,2.35-9.31l.09-.37c1.68-6.82,3.6-14.56,5.81-21.64l2.26-7.13Z"/>
  <path d="M438.27,125.79h-22.74c-.44-1.79-.96-3.55-1.55-5.28-2.48-7.26-6.22-13.92-10.96-19.75-1.5-1.84-3.1-3.6-4.79-5.25l11.58-19.71c1.75,1.51,3.45,3.11,5.06,4.77,10.72,10.91,18.55,24.63,22.29,39.95.43,1.74.8,3.5,1.12,5.28Z"/>
  <polygon points="422.63 359.41 422.63 369.46 392.9 369.46 392.9 318.53 422.63 318.53 422.63 328.45 405.16 328.45 405.16 338.07 421.42 338.07 421.42 347.99 405.16 347.99 405.16 359.41 422.63 359.41"/>
  <rect x="417.53" y="382.73" width="3.87" height="27.28"/>
  <path d="M412.72,400.28c0,2.16-.37,3.98-1.13,5.49-.76,1.51-1.81,2.66-3.17,3.43-1.36.78-2.99,1.18-4.88,1.18-1.72,0-3.27-.4-4.63-1.18-1.37-.77-2.44-1.91-3.22-3.43-.78-1.5-1.17-3.33-1.17-5.49,0-3.2.82-5.66,2.44-7.39,1.63-1.72,3.86-2.59,6.68-2.59,1.79,0,3.37.38,4.72,1.17s2.41,1.91,3.19,3.39,1.17,3.29,1.17,5.42ZM408.19,404c.34-1.04.51-2.28.51-3.72s-.17-2.66-.54-3.66-.91-1.77-1.67-2.32c-.76-.54-1.74-.8-2.92-.8-1.77,0-3.06.59-3.86,1.78-.8,1.18-1.2,2.84-1.2,5,0,1.43.17,2.68.54,3.72s.91,1.83,1.67,2.37,1.71.82,2.89.82,2.17-.28,2.92-.82,1.3-1.33,1.65-2.37Z"/>
  <path d="M390.62,385.57l-1.26,3.27c-.98-.41-1.97-.75-2.97-1-1.01-.27-2.05-.4-3.12-.4-.96,0-1.76.13-2.39.41-.64.28-1.12.66-1.43,1.17-.33.5-.49,1.1-.49,1.76,0,.77.19,1.41.54,1.93.36.54.93,1.01,1.71,1.44.77.42,1.81.91,3.1,1.43,1.43.57,2.66,1.18,3.66,1.83,1,.64,1.77,1.41,2.3,2.31s.79,2.02.79,3.36c0,1.51-.37,2.81-1.12,3.9-.73,1.08-1.79,1.92-3.19,2.51-1.39.58-3.03.89-4.95.89-.93,0-1.83-.06-2.69-.16-.85-.12-1.65-.26-2.4-.45-.75-.19-1.41-.43-2-.71v-3.74c.98.43,2.11.83,3.4,1.17,1.29.35,2.61.52,3.95.52,1.15,0,2.1-.15,2.85-.44.76-.3,1.32-.73,1.69-1.28.36-.55.55-1.19.55-1.93s-.2-1.42-.59-1.96c-.38-.54-1-1.04-1.83-1.49-.82-.45-1.91-.94-3.27-1.47-.93-.36-1.79-.76-2.58-1.2-.77-.44-1.44-.97-2.03-1.56-.57-.59-1.01-1.29-1.34-2.09-.33-.78-.49-1.71-.49-2.76,0-1.41.35-2.62,1.05-3.64.69-1.03,1.67-1.79,2.92-2.34,1.25-.54,2.71-.8,4.39-.8,1.39,0,2.67.14,3.86.41,1.19.28,2.32.65,3.39,1.13Z"/>
  <path d="M386.9,318.53l-16.96,50.93h-13.98l-16.98-50.93h13.19l8.27,28.03c.2.76.47,1.86.83,3.32.35,1.44.7,2.95,1.04,4.49.33,1.55.55,2.82.64,3.82.14-1,.36-2.26.68-3.79.3-1.51.63-3.01.96-4.45.34-1.46.62-2.56.86-3.32l8.34-28.1h13.12Z"/>
  <path d="M372.61,56.79l-.02.05c-.63-.15-1.27-.28-1.91-.42-.3-.06-.61-.12-.92-.19-.56-.1-1.12-.21-1.69-.31,1.53.26,3.04.54,4.54.87Z"/>
  <path d="M364.56,55.38c-.1-.01-.2-.02-.3-.03-.31-.05-.63-.08-.96-.12.21.01.41.03.62.06.22.02.43.06.64.09Z"/>
  <path d="M357.75,390.67v19.55c0,1.84-.33,3.39-.99,4.63-.65,1.25-1.64,2.19-2.97,2.82-1.33.64-3.02.96-5.05.96-1.39,0-2.66-.09-3.82-.29-1.17-.19-2.23-.49-3.22-.9v-3.37c1.01.48,2.13.85,3.36,1.11,1.24.27,2.54.4,3.94.4,1.55,0,2.76-.44,3.62-1.34.85-.9,1.28-2.16,1.28-3.75v-.65c0-.3.01-.71.05-1.21.02-.5.05-.89.07-1.15h-.15c-.66,1-1.48,1.74-2.46,2.2-.97.48-2.09.71-3.36.71-2.44,0-4.33-.89-5.7-2.64s-2.05-4.22-2.05-7.38.69-5.56,2.06-7.35,3.27-2.69,5.69-2.69c1.25,0,2.38.24,3.38.72s1.85,1.19,2.55,2.14h.17l.43-2.51h3.16ZM354.05,401.11v-.72c0-1.64-.19-2.97-.54-3.97-.36-1.01-.92-1.75-1.69-2.21s-1.74-.7-2.91-.7c-1.48,0-2.62.59-3.43,1.78-.8,1.18-1.2,2.9-1.2,5.14s.4,3.93,1.19,5.08c.79,1.17,1.96,1.75,3.52,1.75.87,0,1.64-.12,2.27-.35.64-.22,1.15-.58,1.56-1.1.41-.5.71-1.14.92-1.91.2-.78.3-1.71.3-2.78Z"/>
  <path d="M335.61,397.42v12.6h-3.88v-12.02c0-1.5-.3-2.63-.93-3.37-.62-.75-1.61-1.12-2.97-1.12-1.97,0-3.32.58-4.05,1.74-.75,1.17-1.12,2.84-1.12,5.05v9.73h-3.88v-19.34h3.05l.54,2.59h.22c.43-.68.97-1.24,1.6-1.68s1.33-.76,2.1-.97c.77-.2,1.56-.3,2.37-.3,2.23,0,3.95.56,5.15,1.67,1.21,1.12,1.82,2.92,1.82,5.44Z"/>
  <polygon points="335.13 359.41 335.13 369.46 305.38 369.46 305.38 318.53 335.13 318.53 335.13 328.45 317.65 328.45 317.65 338.07 333.91 338.07 333.91 347.99 317.65 347.99 317.65 359.41 335.13 359.41"/>
  <rect x="308.95" y="390.67" width="3.87" height="19.34"/>
  <path d="M312.45,383.8c.44.35.66.92.66,1.7s-.22,1.33-.66,1.69-.96.54-1.53.54c-.62,0-1.15-.17-1.58-.54-.42-.36-.64-.92-.64-1.69s.22-1.35.64-1.7c.43-.35.97-.52,1.58-.52.57,0,1.08.17,1.53.52Z"/>
  <path d="M305.36,390.48l-.4,3.62c-.27-.07-.58-.13-.93-.17-.36-.05-.7-.07-1.01-.07-.96,0-1.85.23-2.7.7s-1.53,1.14-2.05,2.03c-.51.89-.77,1.97-.77,3.26v10.16h-3.87v-19.34h3.04l.5,3.44h.19c.62-1.05,1.42-1.95,2.4-2.69.98-.73,2.14-1.11,3.48-1.11.34,0,.7.01,1.1.03s.73.07,1.03.14Z"/>
  <path d="M294.55,348.18c.85,1.58,1.28,3.74,1.28,6.45,0,3.09-.76,5.73-2.28,7.95s-3.71,3.91-6.56,5.1-6.26,1.78-10.2,1.78h-19.4v-50.93h16.76c7.08,0,12.28,1.03,15.59,3.08,3.3,2.04,4.95,5.28,4.95,9.69,0,2.1-.36,3.91-1.07,5.45-.71,1.55-1.67,2.8-2.85,3.75-1.19.94-2.52,1.58-3.98,1.92v.35c1.56.34,3.04.92,4.42,1.75,1.37.84,2.49,2.05,3.36,3.65ZM283.13,353.49c0-1.1-.23-2.09-.71-2.96-.48-.89-1.28-1.57-2.42-2.07s-2.71-.75-4.71-.75h-5.64v11.98h5.93c2.8,0,4.77-.57,5.88-1.71,1.11-1.14,1.67-2.63,1.67-4.49ZM280.53,336.9c1.07-.97,1.61-2.26,1.61-3.88s-.62-2.89-1.85-3.67c-1.25-.79-3.19-1.18-5.85-1.18h-4.79v10.2h5.21c2.71,0,4.6-.49,5.67-1.47Z"/>
  <path d="M288.92,399.06v2.12h-12.99c.05,1.97.57,3.46,1.56,4.51.99,1.04,2.38,1.56,4.15,1.56,1.25,0,2.35-.13,3.32-.36.97-.24,1.97-.58,2.99-1.04v3.23c-.96.43-1.93.75-2.92.97-.99.21-2.18.33-3.57.33-1.88,0-3.52-.37-4.95-1.12-1.44-.75-2.56-1.84-3.36-3.32-.8-1.47-1.21-3.3-1.21-5.46s.37-4,1.1-5.51c.73-1.53,1.76-2.68,3.08-3.46,1.32-.79,2.84-1.19,4.59-1.19s3.16.35,4.38,1.06c1.21.7,2.16,1.71,2.83,3.02.66,1.29,1,2.85,1,4.67ZM276,398.31h9.05c-.03-1.48-.38-2.69-1.08-3.62-.69-.93-1.79-1.4-3.3-1.4-1.34,0-2.42.43-3.23,1.3-.82.87-1.29,2.11-1.44,3.72Z"/>
  <path d="M269.18,406.74v2.95c-.41.2-.96.35-1.67.49-.71.13-1.42.2-2.13.2-1.05,0-2.02-.19-2.89-.55-.87-.35-1.57-.98-2.1-1.86s-.79-2.13-.79-3.73v-10.63h-2.69v-1.76l2.83-1.43,1.36-4.09h2.38v4.35h5.52v2.94h-5.52v10.59c0,1.03.26,1.78.77,2.27.51.5,1.19.75,2.03.75.5,0,1.01-.06,1.54-.15s.98-.2,1.36-.33Z"/>
  <path d="M253.43,396.91v13.1h-2.76l-.76-2.69h-.14c-.55.69-1.12,1.27-1.7,1.72s-1.26.78-2.02,1c-.75.21-1.67.33-2.74.33-1.75,0-3.19-.48-4.35-1.44-1.14-.96-1.72-2.44-1.72-4.45s.75-3.45,2.23-4.49c1.49-1.03,3.76-1.58,6.82-1.68l3.34-.1v-1.05c0-1.41-.33-2.4-.97-2.97-.65-.58-1.56-.86-2.73-.86-.99,0-1.93.14-2.84.43-.91.28-1.78.63-2.61,1.04l-1.22-2.8c.91-.48,1.96-.89,3.16-1.2,1.19-.33,2.44-.49,3.73-.49,2.45,0,4.26.54,5.48,1.6,1.2,1.06,1.81,2.74,1.81,5.01ZM249.6,402.4v-1.69l-2.59.1c-2.18.08-3.68.43-4.52,1.06-.84.64-1.26,1.51-1.26,2.64,0,1,.3,1.72.9,2.17.61.44,1.37.66,2.33.66,1.47,0,2.68-.42,3.66-1.24.99-.83,1.48-2.06,1.48-3.72Z"/>
  <rect x="230.43" y="345.43" width="19.18" height="9.76"/>
  <path d="M234.45,385.65l-1.43,3.26c-.84-.38-1.74-.72-2.71-1.03-.97-.3-1.99-.44-3.06-.44-1.68,0-3.11.38-4.32,1.17-1.21.77-2.13,1.9-2.78,3.37-.64,1.47-.97,3.23-.97,5.25s.29,3.75.89,5.21c.58,1.46,1.47,2.58,2.67,3.36s2.69,1.17,4.49,1.17c1.1,0,2.16-.1,3.18-.3,1.01-.21,2.05-.48,3.1-.8v3.37c-1.03.41-2.06.7-3.1.87-1.05.19-2.26.28-3.65.28-2.63,0-4.81-.55-6.55-1.62s-3.03-2.61-3.88-4.59c-.85-1.99-1.27-4.31-1.27-6.97s.48-4.87,1.42-6.85,2.32-3.53,4.14-4.65c1.82-1.11,4.03-1.67,6.64-1.67,1.32,0,2.59.14,3.82.43s2.37.68,3.39,1.19Z"/>
  <path d="M214.09,347.28l14.9,22.18h-13.83l-11.41-19.05h-4.64v19.05h-12.27v-50.93h15.76c4.61,0,8.42.56,11.44,1.68s5.29,2.8,6.82,5.03c1.51,2.24,2.28,5.03,2.28,8.41,0,2.19-.4,4.15-1.18,5.88-.79,1.74-1.88,3.23-3.25,4.5-1.37,1.26-2.92,2.34-4.64,3.24ZM210.75,334.16c0-1.37-.31-2.51-.93-3.39-.62-.87-1.56-1.54-2.82-1.96-1.26-.43-2.89-.64-4.88-.64h-2.99v12.69h2.99c2.85,0,5-.54,6.45-1.6,1.44-1.07,2.18-2.77,2.18-5.1Z"/>
  <rect x="134.29" y="397.77" width="71.2" height="5.83"/>
  <path d="M173.87,329.66c2.1,3.66,3.13,8.18,3.13,13.55,0,5.8-1.11,10.65-3.31,14.55-2.21,3.89-5.35,6.82-9.41,8.77-4.07,1.95-8.93,2.92-14.59,2.92h-15.4v-50.93h16.76c5.42,0,10.06.94,13.91,2.82,3.85,1.88,6.82,4.65,8.91,8.31ZM164.25,343.57c0-5.14-1.08-8.93-3.25-11.38-2.17-2.45-5.36-3.67-9.59-3.67h-4.85v30.82h3.85c4.71,0,8.19-1.32,10.45-3.93s3.39-6.56,3.39-11.84Z"/>
</svg>